<svg xmlns="http://www.w3.org/2000/svg" viewBox="0 0 520 226" width="520" height="226">
  <defs>
    <style>
      .nc { fill: none; stroke: #0A7AFF; stroke-width: 3.2; stroke-linejoin: round; stroke-linecap: round; }
      .dot { fill: #0A7AFF; }
    </style>
  </defs>
  <g transform="translate(65.0, 5)">
    <path class="nc" d="M 118.38,5.09 L 131.31,5.78 L 139.78,5.91 L 154.4,6.56 L 160.1,6.38 L 177.65,7.29 L 185.04,7.37 L 211.21,7.46 L 254.16,7.46 L 265.55,7.29 L 306.19,7.29 L 322.51,7.33 L 322.51,6.9 L 327.28,6.99 L 345.75,6.99 L 367.61,6.99 L 367.92,9.48 L 370.54,20.02 L 373,26.82 L 376.54,33.53 L 381.93,45.19 L 380.54,44.59 L 377.77,38.31 L 375.62,34.87 L 373.62,34.4 L 372.23,26.91 L 369.77,20.24 L 368.54,19.25 L 369,17.57 L 368.23,13.74 L 366.69,12.45 L 366.07,10.39 L 362.22,9.83 L 362.07,8.11 L 360.07,8.97 L 360.99,11.59 L 363.46,13.66 L 365.15,13.23 L 365.15,16.11 L 367.46,21.92 L 368.84,24.54 L 368.69,25.66 L 370.38,28.89 L 370.38,30.91 L 367.46,28.16 L 367.61,26.56 L 365.61,23.94 L 365.15,22.3 L 363.3,21.79 L 364.23,23.42 L 363.76,24.63 L 365.92,26.31 L 361.15,25.23 L 356.22,20.15 L 353.91,19.64 L 356.84,23.81 L 358.38,24.54 L 359.3,26.78 L 357.91,27.77 L 354.22,28.37 L 350.99,25.32 L 352.06,28.03 L 353.6,29.19 L 352.53,29.79 L 347.75,27.85 L 345.75,27.64 L 344.98,26.39 L 342.21,25.36 L 345.75,28.5 L 348.99,29.49 L 347.91,30.31 L 344.21,30.65 L 342.21,33.32 L 339.75,34.27 L 337.13,34.22 L 335.9,32.89 L 332.82,32.37 L 330.97,27.17 L 330.97,24.54 L 332.82,21.19 L 332.05,20.63 L 329.9,23.9 L 329.59,27.17 L 330.82,31.21 L 332.51,34.52 L 331.74,36.33 L 332.98,37.79 L 339.13,37.36 L 344.83,35.34 L 346.21,37.45 L 348.22,37.19 L 350.22,35.9 L 354.22,34.87 L 359.15,34.91 L 361.3,36.68 L 361.3,38.53 L 359.15,41.88 L 359.61,44.25 L 359.92,51.3 L 361.3,51.09 L 362.38,46.14 L 362.84,39.69 L 365,37.97 L 364.07,36.55 L 366.23,35.69 L 370.08,36.59 L 372.54,40.63 L 373.62,43.43 L 373,45.67 L 374.08,49.88 L 372.85,50.96 L 373.46,53.28 L 371.46,55.61 L 368.84,56.04 L 367.92,55.26 L 366.38,55.95 L 365.46,57.67 L 363.92,58.06 L 363.46,59.91 L 362.38,60.38 L 361.3,63.44 L 359.3,64.08 L 358.84,66.06 L 356.22,67.14 L 355.76,68.17 L 351.76,67.1 L 347.29,67.27 L 343.29,66.49 L 342.52,65.42 L 340.98,66.02 L 338.67,64.08 L 336.67,59.14 L 341.44,59.01 L 342.21,57.07 L 337.9,58.15 L 336.05,57.67 L 334.67,59.09 L 336.05,61.55 L 336.98,65.25 L 335.9,65.25 L 331.44,63.22 L 329.28,63.65 L 326.2,62.19 L 321.43,60.9 L 317.89,58.83 L 317.73,60.08 L 320.35,62.71 L 323.58,62.92 L 333.28,67.31 L 340.36,68.52 L 341.6,69.85 L 341.75,71.57 L 340.67,73.98 L 338.67,76.3 L 338.83,77.51 L 337.44,79.79 L 335.13,81.6 L 327.43,86.42 L 319.74,81.6 L 319.89,84.39 L 323.58,86.76 L 329.13,88.61 L 334.67,85.17 L 336.67,85.08 L 340.83,83.79 L 341.44,81.12 L 343.14,81.73 L 343.6,84.56 L 344.83,85.9 L 347.6,86.11 L 346.21,82.89 L 349.29,84.13 L 349.6,87.79 L 346.98,91.02 L 344.21,91.58 L 344.21,93.04 L 342.52,93.9 L 340.36,97.52 L 339.29,100.57 L 336.67,99.71 L 336.82,96.27 L 335.28,95.45 L 335.44,98.98 L 332.98,99.28 L 339.44,102.03 L 342.98,96.74 L 348.06,91.58 L 351.76,88.35 L 358.99,80.78 L 360.22,81.68 L 355.91,85.25 L 351.91,89.38 L 348.52,92.05 L 345.29,95.41 L 342.52,98.94 L 339.29,103.88 L 338.83,105.26 L 338.21,102.38 L 332.82,100.01 L 326.82,99.97 L 317.58,101.6 L 313.12,103.02 L 310.04,104.4 L 305.11,107.89 L 299.11,111.11 L 295.11,113.82 L 289.41,118.69 L 287.25,121.05 L 283.41,126.56 L 281.25,131.34 L 279.71,136.15 L 278.33,139.12 L 277.71,142.09 L 275.71,141.79 L 275.25,140.33 L 272.01,139.42 L 268.47,139.04 L 264.16,139.12 L 259.54,139.64 L 254.16,141.45 L 252.93,142.18 L 238.61,127.98 L 222.6,112.4 L 217.83,107.41 L 204.28,94.42 L 194.89,94.38 L 183.5,94.07 L 156.1,93.64 L 156.71,87.83 L 150.25,79.27 L 145.63,82.41 L 144.86,81.51 L 145.94,79.44 L 145.63,77.16 L 137.16,76.6 L 121,75.92 L 92.06,74.67 L 88.51,75.53 L 87.74,73.85 L 85.9,76.09 L 84.82,75.7 L 81.74,76.86 L 80.82,76.65 L 76.35,78.67 L 72.04,81.25 L 70.96,80.35 L 56.96,84.61 L 34.94,85.04 L 35.1,85.3 L 4.92,85.21 L 6.31,73.38 L 9.7,71.31 L 10.16,72.43 L 14.47,72.26 L 17.85,69.55 L 17.09,67.1 L 18.47,66.02 L 17.85,64.13 L 20.47,61.46 L 22.47,60.81 L 23.7,58.75 L 26.17,58.4 L 28.48,56.47 L 40.79,56.17 L 42.49,54.02 L 45.87,52.64 L 46.64,51.52 L 48.18,51.82 L 50.64,49.76 L 51.26,48.25 L 53.72,48.08 L 54.95,46.36 L 58.19,45.11 L 61.88,45.88 L 65.88,40.94 L 65.42,38.22 L 66.96,36.93 L 69.27,38.48 L 72.35,34.27 L 77.43,31.25 L 78.97,32.98 L 78.2,35.99 L 80.51,36.85 L 84.82,34.18 L 87.13,30.18 L 89.44,28.67 L 92.06,27.77 L 93.9,27.98 L 95.29,26.56 L 98.21,27.08 L 98.83,29.23 L 101.14,29.23 L 103.29,28.03 L 108.37,19.42 L 111.61,17.14 L 113.3,16.62 L 114.53,17.61 L 117.15,17.61 L 115.61,14.43 L 116.69,11.63 L 117.61,11.12 L 116.99,7.68 L 118.38,5.09 Z"/>
    <path class="nc" d="M 361.3,81.21 L 362.53,78.63 L 363.76,78.63 L 371,74.93 L 373.31,74.41 L 375.46,72.99 L 377.31,72.9 L 379.77,71.4 L 381.78,70.97 L 382.54,67.78 L 384.24,56.94 L 384.24,54.62 L 383.01,50.53 L 382.08,46.01 L 382.54,46.1 L 384.24,50.66 L 385.01,54.75 L 384.55,60.6 L 382.24,72.9 L 378.54,73.25 L 370.85,76 L 364.23,79.36 L 361.3,81.21 Z"/>
    <circle class="dot" cx="179.99" cy="29.54" r="7"/>
  </g>
  <text text-anchor="middle" x="260" y="207" font-family="Montserrat, 'Arial Black', Arial, sans-serif" font-weight="800" font-size="40" letter-spacing="1">
    <tspan fill="#0A7AFF">CAROLINA </tspan><tspan fill="#1E3A8A">RECHARGE</tspan>
  </text>
</svg>