<svg xmlns="http://www.w3.org/2000/svg" viewBox="0 0 860 90" width="860" height="90">
  <defs>
    <style>
      .nc { fill: none; stroke: #0A7AFF; stroke-width: 2; stroke-linejoin: round; stroke-linecap: round; }
      .dot { fill: #0A7AFF; }
    </style>
  </defs>
  <g transform="translate(5, 5) scale(1.1429)">
    <path class="nc" d="M 57.34,5.04 L 63.31,5.34 L 67.22,5.4 L 73.97,5.68 L 76.6,5.61 L 84.7,6 L 88.11,6.04 L 100.19,6.08 L 120.02,6.08 L 125.27,6 L 144.03,6 L 151.57,6.02 L 151.57,5.83 L 153.77,5.87 L 162.3,5.87 L 172.39,5.87 L 172.53,6.96 L 173.74,11.57 L 174.88,14.54 L 176.51,17.48 L 179,22.57 L 178.36,22.31 L 177.08,19.56 L 176.08,18.06 L 175.16,17.85 L 174.52,14.58 L 173.38,11.66 L 172.82,11.23 L 173.03,10.5 L 172.67,8.82 L 171.96,8.26 L 171.68,7.35 L 169.9,7.11 L 169.83,6.36 L 168.91,6.73 L 169.33,7.88 L 170.47,8.78 L 171.25,8.6 L 171.25,9.86 L 172.32,12.4 L 172.96,13.54 L 172.89,14.03 L 173.67,15.44 L 173.67,16.33 L 172.32,15.12 L 172.39,14.43 L 171.47,13.28 L 171.25,12.57 L 170.4,12.34 L 170.83,13.05 L 170.61,13.58 L 171.61,14.31 L 169.4,13.84 L 167.13,11.62 L 166.06,11.4 L 167.41,13.22 L 168.13,13.54 L 168.55,14.52 L 167.91,14.95 L 166.21,15.22 L 164.71,13.88 L 165.21,15.07 L 165.92,15.58 L 165.42,15.84 L 163.22,14.99 L 162.3,14.9 L 161.94,14.35 L 160.66,13.9 L 162.3,15.27 L 163.79,15.71 L 163.29,16.06 L 161.59,16.21 L 160.66,17.38 L 159.53,17.8 L 158.32,17.78 L 157.75,17.19 L 156.33,16.97 L 155.48,14.69 L 155.48,13.54 L 156.33,12.08 L 155.97,11.83 L 154.98,13.26 L 154.84,14.69 L 155.4,16.46 L 156.19,17.91 L 155.83,18.7 L 156.4,19.34 L 159.24,19.15 L 161.87,18.27 L 162.51,19.19 L 163.43,19.07 L 164.36,18.51 L 166.21,18.06 L 168.48,18.08 L 169.48,18.85 L 169.48,19.66 L 168.48,21.12 L 168.69,22.16 L 168.84,25.24 L 169.48,25.15 L 169.97,22.99 L 170.19,20.17 L 171.18,19.41 L 170.75,18.79 L 171.75,18.42 L 173.53,18.81 L 174.66,20.58 L 175.16,21.8 L 174.88,22.78 L 175.37,24.62 L 174.81,25.09 L 175.09,26.11 L 174.17,27.13 L 172.96,27.31 L 172.53,26.98 L 171.82,27.28 L 171.39,28.03 L 170.68,28.2 L 170.47,29.01 L 169.97,29.21 L 169.48,30.55 L 168.55,30.83 L 168.34,31.7 L 167.13,32.17 L 166.92,32.62 L 165.07,32.15 L 163.01,32.22 L 161.16,31.88 L 160.81,31.41 L 160.1,31.68 L 159.03,30.83 L 158.11,28.67 L 160.31,28.61 L 160.66,27.77 L 158.67,28.24 L 157.82,28.03 L 157.18,28.65 L 157.82,29.72 L 158.25,31.34 L 157.75,31.34 L 155.69,30.46 L 154.69,30.64 L 153.27,30 L 151.07,29.44 L 149.44,28.54 L 149.36,29.08 L 150.57,30.23 L 152.06,30.32 L 156.54,32.24 L 159.81,32.77 L 160.38,33.35 L 160.45,34.1 L 159.95,35.16 L 159.03,36.17 L 159.1,36.7 L 158.46,37.7 L 157.39,38.49 L 153.84,40.59 L 150.29,38.49 L 150.36,39.71 L 152.06,40.75 L 154.62,41.55 L 157.18,40.05 L 158.11,40.01 L 160.02,39.45 L 160.31,38.28 L 161.09,38.54 L 161.3,39.79 L 161.87,40.37 L 163.15,40.46 L 162.51,39.05 L 163.93,39.6 L 164.07,41.2 L 162.87,42.61 L 161.59,42.85 L 161.59,43.49 L 160.81,43.87 L 159.81,45.45 L 159.31,46.78 L 158.11,46.41 L 158.18,44.9 L 157.47,44.55 L 157.54,46.09 L 156.4,46.22 L 159.38,47.42 L 161.02,45.11 L 163.36,42.85 L 165.07,41.44 L 168.41,38.13 L 168.98,38.53 L 166.99,40.09 L 165.14,41.89 L 163.58,43.06 L 162.08,44.53 L 160.81,46.07 L 159.31,48.23 L 159.1,48.83 L 158.82,47.57 L 156.33,46.54 L 153.56,46.52 L 149.29,47.24 L 147.23,47.86 L 145.81,48.46 L 143.54,49.98 L 140.77,51.39 L 138.92,52.58 L 136.29,54.7 L 135.29,55.74 L 133.52,58.15 L 132.52,60.23 L 131.81,62.34 L 131.17,63.64 L 130.89,64.94 L 129.96,64.81 L 129.75,64.17 L 128.26,63.77 L 126.62,63.6 L 124.63,63.64 L 122.5,63.86 L 120.02,64.65 L 119.45,64.97 L 112.84,58.77 L 105.45,51.96 L 103.24,49.77 L 96.99,44.09 L 92.66,44.07 L 87.4,43.94 L 74.75,43.75 L 75.03,41.22 L 72.05,37.47 L 69.92,38.85 L 69.56,38.45 L 70.06,37.55 L 69.92,36.55 L 66.01,36.31 L 58.55,36 L 45.19,35.46 L 43.55,35.84 L 43.2,35.1 L 42.34,36.08 L 41.85,35.91 L 40.43,36.42 L 40,36.32 L 37.94,37.21 L 35.95,38.34 L 35.45,37.94 L 28.98,39.8 L 18.82,39.99 L 18.89,40.11 L 4.96,40.07 L 5.6,34.89 L 7.17,33.99 L 7.38,34.48 L 9.37,34.41 L 10.93,33.22 L 10.58,32.15 L 11.22,31.68 L 10.93,30.85 L 12.14,29.68 L 13.07,29.4 L 13.63,28.5 L 14.77,28.35 L 15.84,27.5 L 21.52,27.37 L 22.3,26.43 L 23.87,25.83 L 24.22,25.34 L 24.93,25.47 L 26.07,24.57 L 26.35,23.91 L 27.49,23.83 L 28.06,23.08 L 29.55,22.54 L 31.26,22.87 L 33.11,20.71 L 32.89,19.53 L 33.6,18.96 L 34.67,19.64 L 36.09,17.8 L 38.44,16.48 L 39.15,17.23 L 38.79,18.55 L 39.86,18.92 L 41.85,17.76 L 42.91,16.01 L 43.98,15.35 L 45.19,14.95 L 46.04,15.05 L 46.68,14.43 L 48.03,14.65 L 48.31,15.59 L 49.38,15.59 L 50.37,15.07 L 52.72,11.31 L 54.21,10.31 L 54.99,10.08 L 55.56,10.52 L 56.77,10.52 L 56.06,9.12 L 56.56,7.9 L 56.98,7.67 L 56.7,6.17 L 57.34,5.04 Z"/>
    <path class="nc" d="M 169.48,38.32 L 170.04,37.19 L 170.61,37.19 L 173.95,35.57 L 175.02,35.35 L 176.01,34.73 L 176.87,34.69 L 178,34.03 L 178.93,33.84 L 179.28,32.45 L 180.06,27.71 L 180.06,26.69 L 179.5,24.91 L 179.07,22.93 L 179.28,22.97 L 180.06,24.96 L 180.42,26.75 L 180.21,29.31 L 179.14,34.69 L 177.43,34.84 L 173.88,36.04 L 170.83,37.51 L 169.48,38.32 Z"/>
    <circle class="dot" cx="85.78" cy="15.73" r="4.38"/>
  </g>
  <text font-family="Montserrat, 'Arial Black', Arial, sans-serif" font-weight="800" font-size="40" letter-spacing="1">
    <tspan x="232" y="62" fill="#0A7AFF">CAROLINA </tspan><tspan fill="#1E3A8A">RECHARGE</tspan>
  </text>
</svg>